<svg width="48" height="48" viewBox="0 0 48 48" fill="none" xmlns="http://www.w3.org/2000/svg">
<path d="M1.79297 46.2137C1.8146 44.0795 2.37729 41.9856 3.4284 40.128C4.5342 38.1953 6.12787 36.5866 8.05016 35.4627C9.97244 34.3388 12.156 33.7391 14.3827 33.7234C18.8741 33.7337 23.1255 36.216 25.337 40.128C26.3875 41.9846 26.9502 44.0772 26.9724 46.2103M33.8981 4.74173V1.9303M43.4947 8.1943L45.7953 6.57944M24.2947 8.1943L21.9907 6.57944M14.3793 27.7509C15.2289 27.7706 16.074 27.6202 16.8647 27.3087C17.6555 26.9972 18.3759 26.5307 18.9838 25.9367C19.5917 25.3428 20.0748 24.6333 20.4046 23.85C20.7344 23.0667 20.9043 22.2253 20.9043 21.3754C20.9043 20.5255 20.7344 19.6842 20.4046 18.9009C20.0748 18.1176 19.5917 17.4081 18.9838 16.8141C18.3759 16.2202 17.6555 15.7537 16.8647 15.4422C16.074 15.1306 15.2289 14.9803 14.3793 15C12.714 15.0386 11.1299 15.7273 9.96581 16.9187C8.80171 18.1101 8.14997 19.7097 8.14997 21.3754C8.14997 23.0412 8.80171 24.6408 9.96581 25.8322C11.1299 27.0236 12.714 27.7122 14.3793 27.7509ZM40.8684 17.3417C40.8626 16.4138 40.6735 15.4963 40.3121 14.6416C39.9507 13.787 39.4241 13.0122 38.7624 12.3617C38.1007 11.7111 37.3171 11.1977 36.4564 10.8509C35.5958 10.5041 34.6751 10.3306 33.7473 10.3406C32.8198 10.3693 31.9071 10.581 31.0616 10.9635C30.2162 11.346 29.4546 11.8917 28.8207 12.5693C28.1867 13.2469 27.6928 14.0431 27.3674 14.9121C27.042 15.7811 26.8914 16.7058 26.9244 17.6332C26.9917 18.8734 27.3837 20.0743 28.0613 21.1153C28.7388 22.1563 29.6781 23.0009 30.785 23.5646V26.9932C30.7912 27.1948 30.8755 27.3861 31.02 27.5268C31.1646 27.6676 31.3581 27.7467 31.5598 27.7474H36.2261C36.4284 27.7475 36.6228 27.6688 36.7681 27.528C36.9134 27.3872 36.9982 27.1954 37.0044 26.9932V23.5029C38.1449 22.9204 39.1066 22.0402 39.7875 20.9555C40.4684 19.8708 40.8396 18.6221 40.8684 17.3417Z" stroke="white" stroke-width="2" stroke-linecap="round" stroke-linejoin="round"/>
</svg>
