<svg width="48" height="48" viewBox="0 0 48 48" fill="none" xmlns="http://www.w3.org/2000/svg">
<path d="M43.3897 22C43.3888 19.7524 42.7367 17.5532 41.5121 15.6684C40.2875 13.7837 38.5431 12.2941 36.4897 11.38C35.7628 9.75172 34.6709 8.31257 33.2985 7.17399C31.9261 6.03542 30.3101 5.22797 28.5756 4.81416C26.8411 4.40035 25.0346 4.39129 23.2961 4.78768C21.5575 5.18406 19.9335 5.97527 18.5497 7.10002H18.2497C16.6247 7.10155 15.018 7.44362 13.5333 8.10417C12.0486 8.76471 10.7188 9.72907 9.62965 10.9351C8.54048 12.1411 7.71614 13.5619 7.20978 15.106C6.70341 16.6501 6.52625 18.2832 6.68974 19.9C5.71095 21.3079 5.05616 22.915 4.7724 24.606C4.48863 26.297 4.58295 28.0299 5.04857 29.6801C5.51419 31.3304 6.33955 32.857 7.46535 34.1502C8.59114 35.4435 9.98943 36.4714 11.5597 37.16C12.335 38.6806 13.4363 40.0114 14.7851 41.0575C16.1339 42.1035 17.6968 42.839 19.3626 43.2115C21.0283 43.584 22.7557 43.5843 24.4215 43.2124C26.0873 42.8405 27.6506 42.1056 28.9997 41.06H29.8597C32.9407 41.0653 35.898 39.8479 38.0822 37.6749C40.2664 35.5019 41.4991 32.551 41.5097 29.47C41.5097 29.12 41.5097 28.78 41.4497 28.47C42.7289 26.5559 43.4047 24.3022 43.3897 22Z" stroke="white" stroke-linecap="round" stroke-linejoin="round"/>
<path d="M6.69043 19.9C7.64043 25.23 9.45043 26.76 10.8804 28.2C12.3104 29.64 16.8304 33.45 17.8804 34.99M41.4504 28.44C40.4504 23.11 38.6904 21.57 37.2604 20.14C35.8304 18.71 31.3104 14.88 30.2604 13.34" stroke="white" stroke-linecap="round" stroke-linejoin="round"/>
<path d="M28.9996 41.06C33.1396 37.56 33.5696 35.23 34.0896 33.27C34.6096 31.31 34.9796 27.8 36.4696 23.81C38.0334 19.8211 38.0334 15.3888 36.4696 11.4M18.5496 7.09998C14.4096 10.6 14.4596 13.33 13.9396 15.29C13.3696 18.4953 12.5743 21.6565 11.5596 24.75C9.99576 28.7388 9.99576 33.1711 11.5596 37.16" stroke="white" stroke-linecap="round" stroke-linejoin="round"/>
<path d="M38.4598 31.24C33.7498 34.58 31.0298 34 27.4598 35.24C25.3398 35.95 24.0398 37.43 17.5198 37.86C13.2398 38.15 11.5998 37.2 11.5998 37.2M9.58984 17.32C14.2998 13.99 17.0198 14.56 20.5898 13.32C22.7098 12.61 24.0098 11.13 30.5298 10.7C34.8098 10.42 36.4498 11.36 36.4498 11.36" stroke="white" stroke-linecap="round" stroke-linejoin="round"/>
<path d="M27.1798 11.12C25.6098 9.46 22.1298 7.12 18.5498 7.12M20.7998 37.45C22.9554 39.6801 25.8994 40.9762 28.9998 41.06" stroke="white" stroke-linecap="round" stroke-linejoin="round"/>
</svg>
