<svg width="48" height="48" viewBox="0 0 48 48" fill="none" xmlns="http://www.w3.org/2000/svg">
<path d="M3.83008 40.384V37.092C3.83008 36.2227 4.06208 35.446 4.52608 34.762C4.99141 34.0767 5.64674 33.5227 6.49208 33.1C8.11475 32.284 9.91608 31.6273 11.8961 31.13C13.8761 30.6327 15.8541 30.384 17.8301 30.384C19.8074 30.384 21.7861 30.6327 23.7661 31.13C25.7461 31.6273 27.5474 32.284 29.1701 33.1C30.0154 33.5227 30.6701 34.076 31.1341 34.76C31.5981 35.4453 31.8301 36.2227 31.8301 37.092V40.384H3.83008ZM5.83008 38.384H29.8301V37.092C29.8301 36.5453 29.6747 36.0967 29.3641 35.746C29.0521 35.3953 28.6694 35.098 28.2161 34.854C26.9641 34.202 25.3967 33.6273 23.5141 33.13C21.6301 32.6327 19.7354 32.384 17.8301 32.384C15.9261 32.384 14.0321 32.6327 12.1481 33.13C10.2654 33.6273 8.69874 34.202 7.44808 34.854C6.99341 35.098 6.61008 35.3953 6.29808 35.746C5.98608 36.098 5.83008 36.5467 5.83008 37.092V38.384ZM17.8301 25.924C16.1181 25.924 14.6901 25.352 13.5461 24.208C12.4021 23.064 11.8301 21.5587 11.8301 19.692H11.4081C11.1854 19.692 11.0014 19.6193 10.8561 19.474C10.7107 19.3287 10.6381 19.1453 10.6381 18.924C10.6381 18.7 10.7107 18.516 10.8561 18.372C11.0014 18.228 11.1854 18.1547 11.4081 18.152H11.8301C11.8821 17.14 12.0954 16.22 12.4701 15.392C12.8434 14.564 13.4507 13.7747 14.2921 13.024V14.924C14.2921 15.1467 14.3647 15.33 14.5101 15.474C14.6541 15.6207 14.8381 15.694 15.0621 15.694C15.2847 15.694 15.4687 15.6207 15.6141 15.474C15.7581 15.33 15.8301 15.1467 15.8301 14.924V12.3C16.1047 12.2 16.4154 12.112 16.7621 12.036C17.1087 11.9613 17.4647 11.924 17.8301 11.924C18.1954 11.924 18.5521 11.9613 18.9001 12.036C19.2467 12.112 19.5567 12.2 19.8301 12.3V14.924C19.8301 15.1467 19.9034 15.3307 20.0501 15.476C20.1941 15.62 20.3774 15.692 20.6001 15.692C20.8227 15.692 21.0067 15.6193 21.1521 15.474C21.2974 15.33 21.3701 15.1467 21.3701 14.924V13.024C22.2367 13.7747 22.8501 14.564 23.2101 15.392C23.5727 16.22 23.7794 17.14 23.8301 18.152H24.2541C24.4767 18.152 24.6607 18.2253 24.8061 18.372C24.9514 18.5187 25.0241 18.7027 25.0241 18.924C25.0241 19.1467 24.9507 19.3307 24.8041 19.476C24.6574 19.6213 24.4741 19.6933 24.2541 19.692H23.8301C23.8301 21.5587 23.2587 23.064 22.1161 24.208C20.9721 25.352 19.5434 25.924 17.8301 25.924ZM17.8301 23.924C18.9821 23.924 19.9367 23.5447 20.6941 22.786C21.4514 22.0287 21.8301 21.0747 21.8301 19.924H13.8301C13.8301 21.0747 14.2094 22.0287 14.9681 22.786C15.7254 23.5447 16.6794 23.924 17.8301 23.924ZM32.9081 29.692L32.7621 28.27C32.5101 28.2033 32.2481 28.0967 31.9761 27.95C31.7041 27.8033 31.4707 27.6327 31.2761 27.438L29.9541 28.016L29.1841 26.676L30.3621 25.83C30.3101 25.6793 30.2841 25.5413 30.2841 25.416V24.604C30.2841 24.4907 30.3101 24.346 30.3621 24.17L29.1841 23.324L29.9541 21.984L31.2761 22.562C31.4614 22.3767 31.6927 22.2087 31.9701 22.058C32.2461 21.906 32.5101 21.7967 32.7621 21.73L32.9081 20.308H34.4481L34.5921 21.73C34.8441 21.7967 35.1081 21.906 35.3841 22.058C35.6614 22.2087 35.8921 22.3767 36.0761 22.562L37.4001 21.984L38.1701 23.324L36.9921 24.17C37.0441 24.346 37.0701 24.4907 37.0701 24.604V25.416C37.0701 25.5413 37.0441 25.6793 36.9921 25.83L38.1701 26.676L37.4001 28.016L36.0761 27.438C35.8841 27.63 35.6514 27.8 35.3781 27.948C35.1047 28.096 34.8427 28.2027 34.5921 28.268L34.4461 29.692H32.9081ZM33.6761 26.808C34.1787 26.808 34.6054 26.632 34.9561 26.28C35.3081 25.9293 35.4841 25.5027 35.4841 25C35.4841 24.4973 35.3087 24.0707 34.9581 23.72C34.6061 23.368 34.1794 23.192 33.6781 23.192C33.1754 23.192 32.7487 23.368 32.3981 23.72C32.0461 24.0707 31.8701 24.4973 31.8701 25C31.8701 25.5027 32.0454 25.9293 32.3961 26.28C32.7481 26.632 33.1747 26.808 33.6761 26.808ZM37.7381 18.848L37.5701 17.284C37.1927 17.2107 36.7954 17.06 36.3781 16.832C35.9607 16.604 35.6281 16.3267 35.3801 16L33.8941 16.624L33.0341 15.146L34.3481 14.186C34.2814 13.9927 34.2347 13.7947 34.2081 13.592C34.1841 13.3893 34.1721 13.192 34.1721 13C34.1721 12.808 34.1847 12.6107 34.2101 12.408C34.2367 12.2053 34.2834 12.008 34.3501 11.816L33.0321 10.854L33.8941 9.37599L35.3781 9.99999C35.6301 9.67199 35.9641 9.39466 36.3801 9.16799C36.7961 8.94133 37.1934 8.79066 37.5721 8.71599L37.7401 7.15399H39.4641L39.6321 8.71399C40.0094 8.78866 40.4067 8.93999 40.8241 9.16799C41.2401 9.39466 41.5734 9.67199 41.8241 9.99999L43.3101 9.37599L44.1701 10.854L42.8561 11.814C42.9227 12.0073 42.9694 12.2053 42.9961 12.408C43.0201 12.6107 43.0321 12.808 43.0321 13C43.0321 13.192 43.0194 13.3893 42.9941 13.592C42.9674 13.7947 42.9207 13.992 42.8541 14.184L44.1721 15.146L43.3101 16.624L41.8241 16C41.5721 16.328 41.2381 16.6053 40.8221 16.832C40.4047 17.0587 40.0074 17.2093 39.6301 17.284L39.4621 18.846L37.7381 18.848ZM38.6001 15.73C39.3774 15.73 40.0267 15.4693 40.5481 14.948C41.0694 14.4267 41.3301 13.7773 41.3301 13C41.3301 12.2227 41.0701 11.5733 40.5501 11.052C40.0274 10.5307 39.3774 10.27 38.6001 10.27C37.8227 10.27 37.1734 10.5307 36.6521 11.052C36.1307 11.5733 35.8701 12.2227 35.8701 13C35.8701 13.7773 36.1307 14.4267 36.6521 14.948C37.1734 15.4693 37.8227 15.73 38.6001 15.73Z" fill="white"/>
</svg>
